<?xml version="1.0" encoding="utf-8"?>
<!-- Generator: Adobe Illustrator 27.4.1, SVG Export Plug-In . SVG Version: 6.00 Build 0)  -->
<svg version="1.1" id="Layer_1" xmlns="http://www.w3.org/2000/svg" xmlns:xlink="http://www.w3.org/1999/xlink" x="0px" y="0px"
	 viewBox="0 0 1573.9 1511.1" style="enable-background:new 0 0 1573.9 1511.1;" xml:space="preserve">
<style type="text/css">
	.st0{fill:#FFFFFF;}
</style>
<g>
	
		<image style="overflow:visible;enable-background:new    ;" width="4167" height="4221" xlink:href="20A06507C5DC9FA9.png"  transform="matrix(0.2397 0 0 0.2397 308.9372 266.5278)">
	</image>
	<g>
		<path class="st0" d="M805.7,1095.7c3.2,0.4,5.4,0.8,7.6,0.8c17.2,0.1,34.4-0.4,51.6,0.4c8.4,0.4,16.8,3.2,25.1,4.9
			c3.7,0.8,7.4,1.3,11,2.4c4.7,1.5,9.6,2.9,13.8,5.4c5.5,3.1,10.8,6.8,15.5,11c4.9,4.2,10,8.8,13.5,14.1c5.9,9.1,10,19.9,6.1,30.2
			c-3.3,8.7-7.8,17.8-17.7,22.6c-9.2,4.4-17.4,11.2-26.7,15.5c-9.9,4.6-19.7,9.7-31,11c-8.2,0.9-16.4,3.1-24.2,5.9
			c-10.3,3.6-20.9,4.2-31.4,5.6c-9,1.2-17.7,4.2-26.6,5.6c-6.4,1-12.9,0.9-19.4,1c-6.3,0.1-12.7,0.4-18.9-0.3
			c-9.1-1-16.3-6.7-20.5-14c-2.4-4.2-1.5-10.4,1.6-16.3c4.7-8.8,11.7-14.6,18.6-20.8c3.4-3.1,7.1-6,11-8.3
			c5.6-3.2,11.7-5.6,17.3-8.6c4.5-2.4,8.5-5.8,13.1-7.7c6.4-2.7,13.1-4.9,19.8-6.7c8.3-2.3,16.8-4,25.3-6.1c3.7-0.9,7.3-2.1,11-3
			c7-1.7,13.1,1.5,19.2,3.9c3.7,1.4,4.3,5.3,3.5,8.6c-0.7,2.8-2,7-4.1,7.6c-8.2,2.7-16.8,3.9-25.1,6.4c-7.3,2.2-14.2,5.4-21.3,8.1
			c-2.6,1-5.5,1.3-8,2.6c-9.7,5.2-19.5,10.4-28.9,16.1c-3.7,2.2-6.6,5.7-9.5,8.9c-0.8,0.9-0.3,3.1-0.5,6c3.8-1.2,6.4-2.1,9.2-2.9
			c1.1-0.3,2.1-0.7,3.2-0.8c9.4-0.9,18.9-1.5,28.3-2.8c6.6-0.9,13-2.9,19.5-4.4c1.1-0.3,2.2-0.6,3.3-0.9c9.6-2.1,19.6-3.3,28.7-6.7
			c10.4-3.8,20.5-8.9,29.8-14.8c6.2-3.9,11.8-9.7,12.2-17.9c0.2-3.4-0.2-7.6-2-10.3c-4.5-6.5-8.5-13.7-16.4-17
			c-7.7-3.3-15.7-5.5-23.8-7.6c-15.5-4-30.9-3.1-46.3-2.5c-12.4,0.5-25.1,2.5-37,6c-7.8,2.3-15.2,6.8-21.6,13
			c-3.9,3.8-10.5,6.1-16.1,6.8c-8.8,1-18.2,2.8-26.6-2.3c-6-3.6-5.8-9.8-1.3-15c6.1-7.1,15-9.3,21.9-14.7c6-4.8,11.5-10.3,16.8-15.9
			c6.8-7.2,13.2-14.8,19.8-22.3c4.3-5,8.5-10.2,12.8-15.2c5.8-6.6,11.5-13.3,17.6-19.6c5.8-6.1,11.8-12.1,18.2-17.6
			c4-3.4,8.6-6.1,13.3-8.5c6.5-3.3,13-7,20-8.9c13.3-3.6,27-6.2,40.7-3.4c8.3,1.7,16.7,4.7,24,9c9.1,5.4,17.9,11.5,23.1,22
			c4.2,8.4,9,16.2,9,26c0,5.3-2.5,8.2-7,10.3c-3.9,1.8-7.6,4-11.6,5.7c-1.5,0.6-3.5,0.9-5,0.4c-6.1-2.1-12.4-4.3-17-9.1
			c-1.1-1.2-1.1-3.9-0.8-5.8c1.1-7.4-0.2-14.2-5.2-19.7c-4.3-4.8-8.8-9-14.5-12.6c-9-5.7-15.5-0.9-22.4,1.6
			c-12.9,4.7-22.9,13.7-31.7,24.3c-7.2,8.7-15.6,16.2-23.1,24.6C814.1,1083.5,810.5,1089.2,805.7,1095.7z"/>
		<path class="st0" d="M823.5,853.1c-2.8,4.4-5.7,8.9-8.4,13.5c-5.5,9.4-5.2,20-5.9,30.4c-0.5,7.3-2.8,14.6-2.4,21.8
			c0.6,9,2.2,18.3,5.2,26.8c1.6,4.7,6.9,8.1,10.5,12.1c2.9,3.2,2.2,6.5-1,9.5c-7.3,7.2-16.9,7.4-24.9,4.9
			c-9.5-2.9-18.2-8.5-22.6-19.1c-4.2-9.9-6.1-20-5.7-30.5c0.5-12,1.2-23.9,1.8-35.9c0.1-1.9,0.4-3.9,0.1-5.7
			c-0.5-3.1-1.6-5.5-5.6-5.7c-6.6-0.3-13.2-1.2-19.8-1.8c-5.7-0.6-8,0.8-8.2,7.9c-0.5,15.7-0.3,31.3,0,47c0.1,3.9,1.7,7.8,2,11.7
			c0.4,6.7-3.9,11.6-10.7,12.1c-4.9,0.3-10.1,0.9-14.8-0.2c-3.8-0.9-8.1-3.4-10.2-6.5c-3.2-4.7-5.9-9.9-5.8-16.3
			c0.4-19.1,0.2-38.2,0.3-57.3c0-3.5-0.8-5.8-4.1-8.5c-5.6-4.5-6.2-9.5-0.2-14.7c4.3-3.8,7.7-8,7.8-14.9c0.2-21.2,1.6-42.3,2.3-63.4
			c0.1-3-0.3-6-0.5-8.2c-9.2-4.4-17.9-7.9-26-12.5c-4.7-2.7-9.2-6.5-8.5-13.3c0.5-5.7,4.2-10.7,9.9-11.2c4.6-0.4,9.2-0.7,13.8-0.3
			c6.6,0.7,11.2,5.1,15.9,9.4c2.2,2,5.5,3.1,8.5,4.2c12.2,4.5,24.6,7.4,37.7,7.6c5.5,0.1,11.1,0.1,16.6,0.3
			c20.8,0.9,41.7,1.3,62.5,3.3c9.7,0.9,18.9,5.3,24.4,14.6c3.8,6.4,1.9,17.5-3.4,22.9c-8.9,8.9-19,16-30.4,21.2
			c-8.2,3.8-16.6,7.2-24.6,11.5c-10.2,5.5-20.1,11.5-30.1,17.4c-4.6,2.7-9.3,5.4-13.7,8.3c-0.5,0.3-0.3,3.1,0.3,3.5
			c7.1,4.5,14,5,21.9,0.7c7.4-4.1,15.8-7.9,24.1-8.6c6.2-0.5,13,3.8,19.2,6.6C822.2,848,822.7,851.3,823.5,853.1z M817.6,772.2
			c-22.9-0.8-45.7-1.7-68.5-2.2c-2.6-0.1-5.3,1.3-5.5,5.2c-0.7,13.6-1.6,27.2-2.6,42.8c5.3-2.5,8.8-4.1,12.2-5.8
			c7.1-3.5,14.2-7.1,21.3-10.5c4.5-2.2,9.2-3.8,13.6-6.2c8.3-4.6,16.5-9.6,24.7-14.5C816,779,818.8,776.7,817.6,772.2z"/>
		<path class="st0" d="M742.1,575c0,20.3,0,40.5,0,60.8c0,1.3,0.8,2.5,1.2,3.8c1.1,4.4,0.3,8-4.3,9.8c-4.4,1.7-9.5,5.6-13,4.6
			c-6.8-2.1-15.1-1.3-20-9.2c-3.8-6-4.4-12.5-4.8-18.8c-0.8-13.1-0.2-26.3-0.1-39.5c0-1.5,0.4-3,0.7-4.5c1.1-6.3,2.5-12.5-3.9-17.3
			c-2.5-1.9-4.1-5-5.7-7.8c-0.4-0.6,0.3-2.4,1-3.1c2.3-2.5,5-4.7,7.4-7.1c0.9-0.9,1.9-1.9,2.1-3c1.3-8,3-15.9,3.5-23.9
			c1.1-14.4,1.4-28.9,2.2-43.3c1.1-18.3-2.3-13.7-13.5-18.9c-6.5-3-13-6.3-18.4-10.9c-3-2.6-6-8.8-4.9-11.7c1.5-4.1,5.7-9,11.3-9.1
			c6.6,0,13.4,0.8,19.9,2.2c3.2,0.7,6.4,3.3,8.5,5.9c3.1,3.9,7.3,4.2,11.4,5.5c5.5,1.7,10.7,3.9,16.1,5.8c1,0.4,2.2,0.6,3.3,0.7
			c15.4,0.9,30.7,1.9,46.1,2.4c11.3,0.4,22.6,0.7,33.8-0.1c10-0.7,18.9,2.4,27.4,6.2c6.2,2.8,12,7.3,14.5,14.6
			c1.5,4.4-1.1,11.4-3.3,15.4c-5.2,9.7-15.1,13.6-23.2,19.4c-7.2,5.1-15.7,8.2-23.7,12.2c-9.8,4.9-19.7,9.8-29.4,14.8
			c-6.2,3.2-12.6,6.1-18.2,10c-3.2,2.2-8.6,4-6.8,10.4c7.7,0,15.4,0.8,22.8-0.3c5.3-0.8,10.4-4,15.3-6.7c4.7-2.6,14.5-2.8,19.2,0.2
			c0.8,0.5,1.8,0.5,2.6,1c2.5,1.7,6.5,3.1,6.9,5.2c0.5,3.2-0.6,7.5-2.6,10c-3.8,4.6-6.5,9.5-7.8,15.1c-3.9,16.9-4.8,34-3.7,51.2
			c0.5,6.8,2,13.7,4.1,20.2c0.9,2.8,4,5.5,6.8,7c5.2,2.9,5.1,7.7,3.6,11.6c-1,2.6-4.9,4.3-7.7,5.9c-2.2,1.2-4.9,1.7-7.4,2.5
			c-0.9,0.3-1.9,0.6-2.8,0.4c-13.8-2.3-24.2-9.8-31.3-21.7c-1.4-2.3-1.8-5.3-2.2-8.1c-1.4-11.2-3.5-22.4-3.7-33.6
			c-0.2-9.1,1.7-18.3,3.1-27.4c0.9-5.8-3-8.3-7-8.7C759.3,574.5,751,575,742.1,575z M748.9,518.3c0.3-0.6,0.5-1.3,0.9-1.5
			c11-5.4,22-10.7,32.9-16.1c2.1-1,4.4-1.8,6.4-3c6.6-3.8,13.1-7.7,19.7-11.5c4.8-2.8,9.6-5.5,14.2-8.5c0.8-0.5,1.2-2.2,1-3.3
			c-0.1-0.7-1.4-1.6-2.3-1.8c-1.5-0.4-3-0.3-4.5-0.3c-19.7-0.1-39.3-0.1-59-0.2c-10.5-0.1-10.2-0.2-10.8,10.4
			c-0.3,6.3-2.4,12.5-2.4,18.8C744.9,507.1,741.2,513.9,748.9,518.3z"/>
		<path class="st0" d="M601.3,1166.6c-5.4,11.8-9.9,23.4-16,34.1c-6.6,11.7-16.2,21.2-26.4,29.9c-1.7,1.4-4.4,1.9-6.7,2.5
			c-5.8,1.4-11.9,4.6-17.3,3.6c-6.9-1.3-15.5-0.5-20.4-7.6c-4.5-6.5-2.1-13.6,5.5-15.7c3.3-0.9,6.8-1,9.9-2.2
			c3.1-1.2,6.6-2.8,8.4-5.3c4.8-6.7,9.1-13.8,12.8-21.2c4.2-8.3,7.3-17.1,11-25.7c0.7-1.6,2.4-2.9,2.9-4.5c1.9-5.7-1.2-9.1-8.6-11.1
			c-5.5-1.5-10.5-4.3-15.9-6.2c-4-1.4-8.3-1-11.4-5.5c-3.6-5.4-4.1-8.8,1.4-12.2c2.4-1.5,5.5-2.3,8.4-2.5
			c11.1-0.7,22.1-0.8,32.7,3.9c1.1,0.5,4.4-1.3,5-2.8c2.3-5.4,4.2-11,5.6-16.7c2.4-9.8,4.3-19.7,6.5-29.5c1.9-8.7,3.6-17.5,5.7-26.2
			c1.8-7.3,4.2-14.5,5.9-21.8c0.7-3.1,0.4-6.5,0.6-9.7c0.5-7.2,6-12.5,13-13c6.1-0.5,11.8-1.5,17.2-5.1c5.6-3.7,22.2,0,27.2,5.2
			c0.9,0.9,1.2,2.7,1.3,4.1c0.8,13.5,1.5,27,2.1,40.5c0.2,5.3-1,11.1,0.6,16c4.5,13.8,0.5,28.2,3.8,41.6c3.1,12.7,1.5,25.3,2.9,37.8
			c0.8,7.3,1.2,14.8,2.3,22.1c1.6,10.2,2.5,20.8,6.2,30.2c3.2,8.2,4.6,17.3,11.1,24.6c7.2,8.1,2.7,18.3-8,19.6
			c-6,0.8-12.7,1.4-18.2-0.5c-4.6-1.6-8.6-6.4-11.7-10.7c-3.6-5-6.5-10.7-8.8-16.4c-1.7-4.3-2-9.1-3.1-13.7
			c-0.4-1.5-1.2-2.9-1.9-4.2c-4.3-8.5-13-11.8-20.4-16.5C611.6,1172.8,606.8,1170,601.3,1166.6z M626.8,1099
			c-0.5-0.4-1.1-0.7-1.7-1.1c-1.6,2.2-3.9,4.2-4.6,6.7c-2.4,8.2-4.1,16.6-6.3,24.8c-2.6,9.5,4.8,17.5,15.6,15.5
			C628.7,1129.6,627.8,1114.3,626.8,1099z"/>
		<path class="st0" d="M325.7,890.8c-4.5-4-7.1,1.8-7.6,3.7c-1.7,6.9-7.1,9.9-12.5,11.5c-8.9,2.6-18.4,3.7-27.1-0.9
			c-3-1.6-5-5-6.9-7c0.9-2.9,1.1-5.4,2.4-7.4c2.2-3.6,4.5-7.4,7.7-10c9.7-8.1,19.2-16.6,31.1-21.5c4.2-1.7,8.5-3.2,12.6-5.2
			c2.7-1.3,5-3,4.9-7c-0.4-15.1,0.3-30.2-0.7-45.3c-0.5-6.9-2.1-14.1-10.8-17.6c-9.1-3.7-17.3-9.3-25.8-14.4
			c-6.7-4-12.1-9.5-16.2-16c-3-4.8,1.2-16.9,6-20c8.2-5.4,16.9-5.5,26-3.2c4,1,9,6.9,8.5,11.4c-0.9,7.6,3.6,10.6,9.2,14.2
			c11.9,7.8,24.8,9.5,38.2,7.4c4.6-0.7,8.9-3.3,13.2-5.4c6.1-2.8,12.2-5.6,17.9-9c7.8-4.8,15.7-9.6,21.6-17c2.6-3.2,6.1-5.7,8.9-8.7
			c3.3-3.7,6.5-7.4,9.2-11.5c4.1-6.1,9.5-10,17-9.8c5.6,0.2,11.3,0.6,16.6,2.2c2.9,0.9,5.5,4.1,7.4,6.8c0.8,1.2-0.1,3.9-0.8,5.7
			c-2.5,6.6-6.5,12.8-7.5,19.6c-1.3,9.4-0.6,19.1-0.2,28.6c0.3,7.2-2.4,11.6-10.7,12.5c-5.3,0.6-11,1.2-15.9-0.3
			c-4.2-1.2-8.7-4.6-10.9-8.4c-3-5-6.1-2.9-8.9-1.6c-6.9,3.2-13.5,7-20.2,10.5c-4,2-7.8,4.4-12,5.8c-4.8,1.6-9.8,2.7-14.8,3
			c-5,0.4-6.7,2.9-6.6,7.2c0.5,16.2,1,32.4,1.5,49c10.7,0.9,20.6,1.3,30.3,2.8c6,1,11.7,3.8,17.5,5.7c0.9,0.3,1.7,0.6,2.6,0.8
			c8.2,1.8,15.1,5.9,20.4,12.1c1.3,1.6,0.4,6.2-0.9,8.7c-3.1,5.7-8.9,6.7-14.9,6.1c-5.4-0.5-10.5-0.1-16.2-2.8
			c-11.2-5.5-23.4-9.1-36.4-7c-1.2,0.2-3.1,1.3-3.4,2.2c-1.4,6.1-2.9,12.3-3.6,18.6c-1.2,10.4-1.5,20.8-3,31.2
			c-1.4,9.6-3.3,19.1-5.8,28.5c-2.4,9.3-5.8,18.3-8.8,27.4c-4.5,13.3-19.5,21-33,16.9c-2.9-0.9-6.1-1.3-8.5-2.9
			c-3.2-2.2-5.9-5.4-9.8-9.1c4.6-3.8,8.5-6.7,12.1-9.9c1.1-1,1.4-2.9,1.9-4.5c2.5-8.6,5.3-17.1,7.4-25.8c2.1-8.7,3.8-17.4,5.1-26.2
			c0.8-4.9,0.5-9.9,1-14.8C323.8,897.6,324.8,894.6,325.7,890.8z"/>
		<path class="st0" d="M544.9,638.4c3.7-1.1,6.7-1.8,9.6-2.8c7.8-2.5,15.8-4.8,23.5-7.5c3.9-1.4,7.4-4,11.3-5.5
			c3.5-1.3,7.5-1.2,11-2.4c15.1-5.2,30.5-8.2,46.4-6.5c4.2,0.4,8.5,3.5,12,6.3c3,2.5-1.4,12.1-6.3,13.9c-3.7,1.3-7.6,1.7-11.5,2.5
			c-7,1.5-14,2.8-21,4.5c-5.5,1.3-10.9,3-16.2,4.9c-7.5,2.7-15,5.9-22.5,8.6c-2.3,0.8-5,0.6-7.2,1.7c-10.7,5.2-22,9.6-31.7,16.3
			c-8,5.5-16.3,9.9-25,13.7c-3,1.3-7.2,0.6-10.7,0.1c-2.6-0.4-5.1-2-7.5-3.2c-6.6-3.2-7.6-11.5-2-16.4c3.8-3.3,7.8-6.5,10.5-8.9
			c-1.6-6.5-4-12.1-4.2-17.8c-0.5-13.3-0.2-26.7,0.2-40.1c0.2-6,1.5-12,1.9-18c0.3-3.8-1-6.5-5.6-7.6c-6.6-1.5-11-6.8-14.5-12.2
			c-2.4-3.7,1.7-6.8,4.5-8.5c4.5-2.7,8.9-5.9,14.8-5.5c4.5,0.3,7.4-1.4,8-7c0.8-7.3,3.4-14.3,4.8-21.6c1.2-5.9,1.5-12,2.7-17.9
			c1.8-9,3.7-18.1,6.3-27c1.1-3.7,3.9-6.9,6-10.4c1.9-3.2,0.6-12.2-1.6-15.7c-4.7-7.6-7.1-16.4-4-24.5c2-5.5,7.4-10.7,14.5-11.2
			c4.7-0.4,9.5-0.2,14.3,0c7.4,0.4,11.7,5.4,11.5,12.8c0,1.5-0.2,3-0.2,4.6c-0.5,10.4,2.2,19.1,12.3,24.1c4,2,8,3.8,12.1,5.5
			c2.8,1.2,5.5,3,8.4,3.3c9.5,1,19.1,1.7,28.7,2.2c7.8,0.4,15.7,0,23.5,0.3c5.2,0.2,8.2,4.1,9.3,8.4c1,4.1-1.2,7.6-5.2,10
			c-4.1,2.4-7.7,5.9-11.9,8.1c-3.2,1.7-7.2,2.3-10.8,2.8c-18.5,2.2-37,4.5-55.6,6.2c-3.6,0.3-7.5-1.1-11.2-2.2
			c-3.7-1.1-6.1,0.6-6.8,5.1c-1.2,7.1-1.3,14.9-4.3,21.1c-3.2,6.6-2.1,13.3-3.2,19.8c-0.3,1.9,0.5,4.6,1.9,5.8
			c0.9,0.8,3.6-0.5,5.5-1c1.8-0.4,3.5-1.2,5.3-1.4c7.1-1,14.5-1.1,21.3-2.9c7.3-1.9,14.4-5.2,21.4-8.3c6.4-2.8,26.4,0.5,30.1,6.1
			c1.2,1.8,1.2,6.1,0,7.5c-5.8,6.1-12.6,10.9-21.4,12.4c-9.5,1.6-19.3,3-28.2,6.4c-9.4,3.7-19.1,4-28.6,4.7
			c-11.8,0.8-12.7,4.6-14.5,14.1c-0.4,2.2-0.1,4.6-0.3,6.9c-1,10.7-2.3,21.3-3.2,32C541.1,631.6,540.3,636.6,544.9,638.4z"/>
		<path class="st0" d="M548.2,849.8c5.9-1.3,11.8-2.7,17.8-3.9c5.4-1,10.9-1.3,16.1-2.8c8.8-2.5,17.1-6.6,26-8.5
			c4.8-1.1,10.2,0.8,15.3,1.5c0.9,0.1,1.8,0.5,2.5,1c2.4,1.8,5.8,3.3,6.9,5.8c1.8,4,1,8.5-3.6,10.9c-4.5,2.3-9,4.8-13.8,6.2
			c-8.5,2.5-17.4,3.6-25.8,6.4c-10.7,3.6-21.4,6-32.6,6.9c-5,0.4-11,0-14.4,5.3c-0.5,0.7-1.2,1.5-1.2,2.3
			c-1.2,18.4-2.4,36.8-3.5,55.1c0.7,0.5,1.3,1,2,1.5c2.5-0.9,4.9-2,7.4-2.7c2.3-0.7,4.7-1.1,7-1.8c8.6-2.6,17.1-5.3,25.7-7.9
			c6.3-1.9,13-3,18.8-5.9c11.3-5.8,23.5-6.3,35.5-8c6.9-1,13.6,1.3,18.9,6c1.7,1.5,2.8,5.3,2.2,7.5c-1.3,4.7-5.1,7.6-10,8.6
			c-7.2,1.4-14.5,2.1-21.5,4c-7.6,2.1-14.9,5.5-22.4,8.1c-2.8,1-5.8,1.3-8.7,2.2c-7.4,2.2-14.8,4.4-22.2,6.8
			c-2.7,0.9-5.2,2.2-7.7,3.5c-9.5,5.2-18.9,10.4-28.2,15.8c-5.2,3-10.2,6.3-15.4,9.5c-3.5,2.2-18.6,0.4-22.8-1.7
			c-5.1-2.5-10.2-5.2-7.5-11.4c1.6-3.7,5.9-6.6,9.6-9c4.4-2.8,7.1-8.2,4.1-11.9c-4.1-5.2-4.9-11.3-4.8-17.2
			c0.3-14.3,1.4-28.5,2.2-42.8c0-0.9,0.2-1.9,0.7-2.7c3.5-6.3,1.5-10.7-5.2-13.6c-3.7-1.6-7.7-3.7-10.1-6.7
			c-6.4-7.9-2.4-16.7,7.8-17.7c5.1-0.5,10.2-0.6,13.6-5.4c0.5-0.7,1.6-1.2,1.8-1.9c1.3-6.2,2.8-12.3,3.6-18.5
			c1.3-8.8,1.5-17.8,5.5-26.1c1.7-3.4,1.7-7.6,2.4-11.5c1.6-9.1,5.1-17.5,9.1-25.8c1-2.2-1-6-1.9-8.9c-0.8-2.6-2-5.2-2.9-7.8
			c-1.2-3.7-3.5-7.5-3.2-11c0.5-4.7,2-10.2,5-13.6c5-5.6,12.3-9,20-7.9c4.7,0.7,9.5,3.3,13.3,6.2c1.9,1.4,2.7,5.8,2.2,8.5
			c-1.4,8.6,2.1,15.9,5.9,22.6c3,5.2,9,8.4,15.4,8.8c7,0.5,14.2,0.8,21.2,0.4c3.2-0.2,6.9-1.9,9.4-4c6.6-5.7,19.2-5.1,23.9,1.9
			c0.8,1.2,1,3.5,0.3,4.8c-1.5,3.2-3,6.8-5.6,9c-5.1,4.5-11,8.3-16.5,12.4c-9,6.7-19.6,6.3-29.8,5.6c-7.6-0.5-12.4,4.7-18.8,6.4
			c-2.1,0.6-4,2.5-6.1,2.7c-3.7,0.5-5,1.9-5.6,5.7c-1.7,11-3.8,22-6.1,33c-0.9,4.4-2.5,8.6-3.8,12.9
			C546.8,848.2,547.5,849,548.2,849.8z"/>
		<path class="st0" d="M291.7,649.8c1-10.2,2-20.5,3-30.8c0.5-4.9-0.4-8.3-5.8-11c-13.2-6.7-9.5-12.6-1.6-18.8c5.9-4.7,11-9.2,10-18
			c-0.7-6.2-0.1-12.6,0.2-18.9c0.1-2.4,1-4.7,1.6-7c0.2-1.1,0.7-2.2,0.6-3.3c-0.7-7.3-1.9-14.5-2.3-21.8c-0.5-9.3-0.2-18.7-0.7-28.1
			c-0.4-7-0.5-14.2-2.6-20.8c-1.8-5.6-3.8-11.9-11.3-14.1c-4.3-1.2-8.8-3.9-11.7-7.3c-5.5-6.3-5.6-16.9,7.1-18.5
			c7.4-1,15.6-0.1,22.7,2.3c6.2,2.1,11.3,7.6,17.1,11.1c5.5,3.3,11.3,5.9,17,8.8c5.4,2.8,10.7,5.7,16.2,8.3c2,0.9,4.5,0.8,6.6,1.5
			c12.3,4.6,25,6.4,38.1,5.7c4.2-0.2,8.5,0.2,12.6-0.3c7.9-1.1,15.9-2.4,23.7-4.1c10.8-2.4,21.6-4.7,32.2-7.9
			c6.3-2,11.4,0.1,16.5,2.6c6.3,3.1,6.4,12.2,0.3,15.6c-9.8,5.5-19,11.8-27.6,19c-7.6,6.3-14.8,13.1-22.5,19.4
			c-7.9,6.4-16.3,12.2-24.3,18.5c-4.3,3.4-8.1,7.3-12.1,10.9c-4,3.5-7.9,7.1-11.9,10.6c-6.9,5.9-13.8,11.9-21,17.5
			c-5.1,4-11,7-16.2,11.1c-4.8,3.8-9.2,8.2-9.3,15.1c0,3.4,0.2,6.9-0.1,10.3c-1.8,16.9-3.4,33.8-5.9,50.5c-0.4,2.9-4.4,5.9-7.4,7.7
			c-3.2,1.9-7.4,3.6-10.9,3.3c-4.9-0.4-10.2-1.8-14.4-4.4C292,661.6,289.5,656.3,291.7,649.8z M399.8,497.5
			c-0.1-0.7-0.3-1.4-0.4-2.1c-3.8-0.7-7.6-2.1-11.4-1.8c-13,0.8-25.4-2.4-38.1-4.2c-0.9-0.1-1.7-0.8-2.5-1
			c-3.5-0.9-7.1-1.7-10.8-2.6c0.8,21,1.4,40.4,2.1,59.7c0.5,0.4,1,0.8,1.4,1.2C360.1,530.3,379.9,513.9,399.8,497.5z"/>
		<path class="st0" d="M364.4,1226.2c-13.3-1.5-23.5-1.8-33.2-4c-6.8-1.5-13-5.8-19.7-8.4c-5.5-2.1-10-5.6-13.6-9.8
			c-4.3-5.1-9-10.6-8.9-17.6c0.2-13.4,1-26.9,2.5-40.3c0.8-6.6,3.1-13.3,5.8-19.5c4.6-11,9.3-22,15.4-32.2
			c5.4-9.2,12-17.9,19.3-25.7c7.8-8.3,15.4-16.8,25.1-23.4c8.6-5.9,17.5-11.5,26.1-17.3c8.5-5.7,17.6-9.3,26.6-13.1
			c15.7-6.5,32.5-7.8,49.4-6.3c7.9,0.7,15.2,3.6,19,11.6c0.8,1.6,1,3.6,1.1,5.5c0.1,7.8,0.1,15.7,0,23.5
			c-0.2,10.3-4.4,19.7-12.3,25.4c-4.7,3.4-12.9,3.9-19,2.8c-14.3-2.5-13.9-8.8-10.9-21.3c1.4-5.8,1.1-12.1,1.1-18.2
			c0-1-3.2-3.2-4.2-2.8c-7.6,2.9-15.1,6-22.3,9.7c-5.8,3-11.4,6.7-16.6,10.7c-7.3,5.6-14.4,11.5-21.2,17.7c-5,4.6-9.8,9.6-13.8,15
			c-4.6,6.3-8.7,13.1-12.3,20.1c-3.8,7.3-7.5,14.8-10.2,22.6c-3.1,9-5.1,18.3-7.3,27.6c-1.3,5.6-2.3,11.2-3.1,16.9
			c-1.4,10.3,6.8,20.1,15.5,22.9c7.4,2.4,15,5.3,23,3.8c7.9-1.4,15.8-2.8,23.5-4.8c7.4-1.9,14.9-3.9,21.9-6.9
			c7.3-3.2,14.1-7.5,21.1-11.4c3.7-2.1,7.2-4.5,11-6.4c6.6-3.2,11.8-7.6,16.1-13.7c6-8.6,25.1-12.2,34.1-7.1
			c7.6,4.3,7.8,12.1,1.7,18.9c-7.9,8.9-17,15.9-27.2,21.8c-7.8,4.5-15.9,8.3-24,12.3c-8.2,4-16.4,8-24.8,11.6
			c-3.2,1.4-6.9,1.9-10.4,2.5C392.9,1221.5,377.2,1224.1,364.4,1226.2z"/>
		<path class="st0" d="M911.8,841.2c0-19.3-0.1-38.6,0.1-57.9c0-3.9-1.3-6.1-4.9-7.7c-4.5-2-9.4-4.3-9-10.7
			c0.3-4.9,4.6-8.1,10.4-10.4c9.9-3.9,20-5.7,30.5-6.1c3.2-0.1,6.6-2.8,9.6-2.4c6.4,1,12.9,2.7,18.9,5.2c5.7,2.4,5.8,9.7,0.5,13
			c-3.4,2.2-7.4,3.3-10.8,5.5c-1.9,1.2-3.1,3.6-4.5,5.6c-0.3,0.4-0.1,1.1-0.1,1.7c-0.7,42.2-1.4,84.3-2,126.5
			c-0.1,7.9,0.8,7.2,7.7,9.7c4.9,1.8,8.9,6.7,12.5,10.8c0.6,0.7-2,5.4-4.2,7.1c-3,2.4-6.7,4.5-10.4,5.3c-4.4,1-9.4-0.3-12.9,3.9
			c-0.8,0.9-2.2,1.9-3.2,1.8c-15.3-2.1-28.6,8.6-44,6.3c-8.9-1.4-15.3-10.7-10.3-16.7c3.4-4.1,7.6-8.8,12.4-10.4
			c12-3.8,12.8-13.2,13-22.9c0.3-19.1,0.1-38.2,0.1-57.3C911.5,841.2,911.7,841.2,911.8,841.2z"/>
		<path class="st0" d="M948.2,448.2c5.4,0,9,0.2,12.6,0c6.2-0.5,10.2,3.4,14.2,6.9c2.6,2.3,3.6,5.7-0.7,8.3c-4.7,2.8-9,6.6-14,8.7
			c-4.2,1.8-4,4.6-4,7.8c-0.1,20.5-0.1,40.9-0.2,61.4c0,12,0.1,24.1-0.4,36.1c-0.4,8.8-1.9,17.6-2.5,26.4c-0.3,5.2,1.8,8.5,7.5,10.2
			c4.6,1.4,9.8,4.5,12.3,8.3c3.7,5.6-3,14.3-10.8,14c-8.5-0.3-14.4,5.5-21.7,7.7c-1,0.3-2.1,1.4-3,1.2c-10-1.6-18.7,3.2-27.8,5.7
			c-6.1,1.6-18.3-3.8-20.9-9.3c-2.5-5.2,1.8-9,4.3-12.3c2.8-3.8,7-7.5,11.4-9.1c8.2-3.1,10.7-8.3,10.6-16.5
			c-0.2-19.7-1.7-39.6,0.8-59c2.5-18.9,1-37.6,2.1-56.3c0.3-5.3-1.6-8.3-6.8-10.6c-4.2-1.9-8.6-6-10.2-10.1c-0.8-2,3.7-7.3,6.9-9.6
			c6.1-4.5,14.3-4.2,21-6.9C936.2,448.1,943,449.3,948.2,448.2z"/>
		<path class="st0" d="M592.2,737.7c-2.1-9,0-15.6,6.8-20.8c6.6-5.1,12.6-11,19.2-16.1c4-3.1,8.6-5.6,13.3-7.8
			c6.7-3.2,13.4-6.9,20.5-8.5c6.5-1.5,13.7-0.8,20.5-0.4c1.4,0.1,3.7,3.3,3.5,4.8c-0.3,2.6-1.5,5.9-3.5,7.4
			c-6.2,4.9-12.9,9.1-19.4,13.5c-8.8,6-17.1,13.2-26.8,17.5c-8.2,3.6-14.2,12.3-24.5,11C598.8,737.9,595.6,737.9,592.2,737.7z"/>
	</g>
	<g>
		<path class="st0" d="M309.1,323.6h-10.8c-0.2-1.4-0.6-2.6-1.2-3.7c-0.6-1.1-1.4-2-2.3-2.8c-1-0.8-2-1.4-3.3-1.8s-2.6-0.6-4-0.6
			c-2.6,0-4.9,0.6-6.8,1.9c-1.9,1.3-3.4,3.1-4.5,5.6c-1.1,2.5-1.6,5.4-1.6,8.9c0,3.6,0.5,6.6,1.6,9c1.1,2.4,2.6,4.3,4.5,5.5
			c1.9,1.2,4.2,1.9,6.7,1.9c1.4,0,2.8-0.2,4-0.6s2.3-0.9,3.3-1.7s1.7-1.6,2.4-2.7c0.6-1,1.1-2.2,1.3-3.6l10.8,0
			c-0.3,2.3-1,4.5-2.1,6.7s-2.6,4-4.5,5.7c-1.9,1.7-4.1,3-6.6,4s-5.5,1.5-8.7,1.5c-4.5,0-8.5-1-12-3s-6.3-5-8.4-8.8s-3.1-8.5-3.1-14
			c0-5.5,1-10.1,3.1-14c2.1-3.9,4.9-6.8,8.4-8.8c3.5-2,7.5-3,11.9-3c2.9,0,5.6,0.4,8.1,1.2s4.7,2,6.6,3.6c1.9,1.6,3.5,3.5,4.7,5.7
			S308.7,320.7,309.1,323.6z"/>
		<path class="st0" d="M412.8,331.1c0,5.5-1,10.2-3.1,14c-2.1,3.9-4.9,6.8-8.5,8.8s-7.6,3-12,3c-4.5,0-8.5-1-12-3
			c-3.5-2-6.4-5-8.4-8.8c-2.1-3.9-3.1-8.5-3.1-14c0-5.5,1-10.1,3.1-14c2.1-3.9,4.9-6.8,8.4-8.8c3.5-2,7.6-3,12-3c4.4,0,8.4,1,12,3
			s6.4,5,8.5,8.8C411.7,321,412.8,325.6,412.8,331.1z M402,331.1c0-3.5-0.5-6.5-1.6-9c-1.1-2.4-2.5-4.3-4.5-5.5
			c-1.9-1.3-4.2-1.9-6.7-1.9s-4.8,0.6-6.7,1.9c-1.9,1.3-3.4,3.1-4.5,5.5s-1.6,5.4-1.6,9s0.5,6.5,1.6,9s2.5,4.3,4.5,5.5
			c1.9,1.3,4.2,1.9,6.7,1.9s4.8-0.6,6.7-1.9c1.9-1.3,3.4-3.1,4.5-5.5C401.4,337.7,402,334.7,402,331.1z"/>
		<path class="st0" d="M512.5,306v50.3h-9.2l-21.9-31.7h-0.4v31.7h-10.6V306h9.3l21.7,31.6h0.4V306L512.5,306L512.5,306z"/>
		<path class="st0" d="M571.1,356.3V306H605v8.8h-23.3v12h21.5v8.8h-21.5v12h23.4v8.8L571.1,356.3L571.1,356.3z"/>
		<path class="st0" d="M673.3,306l10.2,17.1h0.4L694,306h12l-15.4,25.2l15.7,25.2h-12.2l-10.3-17.2h-0.4l-10.3,17.2h-12.2l15.8-25.2
			L661.2,306L673.3,306L673.3,306z"/>
		<path class="st0" d="M806.5,331.1c0,5.5-1,10.2-3.1,14c-2.1,3.9-4.9,6.8-8.5,8.8s-7.6,3-12,3c-4.5,0-8.5-1-12-3
			c-3.5-2-6.4-5-8.4-8.8c-2.1-3.9-3.1-8.5-3.1-14c0-5.5,1-10.1,3.1-14c2.1-3.9,4.9-6.8,8.4-8.8c3.5-2,7.6-3,12-3c4.4,0,8.4,1,12,3
			s6.4,5,8.5,8.8S806.5,325.6,806.5,331.1z M775.9,301l-5.8-0.1c0-3.1,0.8-5.5,2.3-7.2s3.4-2.5,5.7-2.5c1.2,0,2.1,0.2,3,0.5
			s1.6,0.8,2.2,1.3c0.7,0.5,1.3,0.9,1.9,1.3s1.3,0.5,2,0.5c1,0,1.7-0.4,2.2-1.1s0.8-1.6,0.8-2.7l5.7,0.2c0,3.1-0.8,5.5-2.4,7.2
			s-3.4,2.5-5.7,2.5c-1.2,0-2.2-0.2-3.1-0.5s-1.5-0.8-2.2-1.3s-1.2-0.9-1.8-1.3s-1.2-0.6-2-0.6c-0.8,0-1.5,0.3-2.1,1
			C776.1,299,775.9,299.9,775.9,301z M795.7,331.1c0-3.5-0.5-6.5-1.6-9c-1.1-2.4-2.5-4.3-4.5-5.5c-1.9-1.3-4.2-1.9-6.7-1.9
			s-4.8,0.6-6.7,1.9c-1.9,1.3-3.4,3.1-4.5,5.5s-1.6,5.4-1.6,9s0.5,6.5,1.6,9s2.5,4.3,4.5,5.5c1.9,1.3,4.2,1.9,6.7,1.9
			s4.8-0.6,6.7-1.9c1.9-1.3,3.4-3.1,4.5-5.5S795.7,334.7,795.7,331.1z"/>
		<path class="st0" d="M864.2,356.3V306h33.9v8.8h-23.3v12h21.5v8.8h-21.5v12h23.4v8.8L864.2,356.3L864.2,356.3z"/>
		<path class="st0" d="M983.6,320.5c-0.2-2-1-3.5-2.5-4.6c-1.5-1.1-3.5-1.6-6.1-1.6c-1.7,0-3.2,0.2-4.4,0.7s-2.1,1.1-2.7,2
			s-1,1.8-1,2.9c0,0.9,0.2,1.7,0.6,2.4c0.4,0.7,1,1.2,1.7,1.7c0.7,0.5,1.6,0.9,2.6,1.2s2,0.6,3.1,0.9l4.5,1.1c2.2,0.5,4.2,1.1,6,2
			c1.8,0.8,3.4,1.8,4.8,3c1.3,1.2,2.4,2.6,3.1,4.2c0.8,1.6,1.1,3.5,1.1,5.6c0,3.1-0.8,5.7-2.3,8c-1.5,2.2-3.8,4-6.7,5.2
			c-2.9,1.2-6.4,1.9-10.5,1.9c-4.1,0-7.6-0.6-10.6-1.9c-3-1.2-5.3-3.1-7-5.5c-1.7-2.5-2.6-5.5-2.6-9.1H965c0.1,1.7,0.6,3.1,1.5,4.2
			c0.9,1.1,2,2,3.5,2.5c1.5,0.6,3.1,0.9,4.9,0.9c1.8,0,3.4-0.3,4.7-0.8c1.3-0.5,2.4-1.2,3.1-2.2c0.7-0.9,1.1-2,1.1-3.2
			c0-1.1-0.3-2.1-1-2.9c-0.7-0.8-1.6-1.4-2.9-2c-1.3-0.5-2.8-1-4.7-1.5l-5.5-1.4c-4.2-1-7.6-2.6-10-4.8c-2.5-2.2-3.7-5.1-3.7-8.9
			c0-3,0.8-5.7,2.5-8c1.7-2.3,3.9-4,6.8-5.3s6.2-1.9,9.8-1.9c3.7,0,7,0.6,9.8,1.9s5,3,6.5,5.3c1.6,2.3,2.4,4.9,2.4,7.9L983.6,320.5
			L983.6,320.5z"/>
	</g>
</g>
</svg>
